#Comment line ignore any data following # character 
#Hierarchical Translation and Rotation (.htr) file 
[Header]	
#Header keywords are followed by a single value 
FileType HTR		#Single word string
DataType HTRS		#Translation followed by rotation and scale data
FileVersion 1		#integer
NumSegments 84		#integer
NumFrames 2		#integer
DataFrameRate 30		#integer, data frame rate in this file
EulerRotationOrder ZYX
CalibrationUnits mm
RotationUnits Degrees
GlobalAxisofGravity Y
BoneLengthAxis Y
ScaleFactor 1.00
[SegmentNames&Hierarchy]
#CHILD	PARENT
MASTER GLOBAL
root MASTER
chest root
L_mid_tent01 root
R_mid_tent01 root
spine01 root
Bip01_Neck chest
L_humerus chest
R_humerus chest
weapon_bone chest
Bip01_Head Bip01_Neck
eye_left_bone Bip01_Head
eye_right_bone Bip01_Head
L_forearm L_humerus
L_front_hand L_forearm
L_weapon_bone L_forearm
L_front_hand01_01 L_front_hand
L_front_hand02_01 L_front_hand
L_front_hand03_01 L_front_hand
L_front_hand01_02 L_front_hand01_01
L_front_hand02_02 L_front_hand02_01
L_front_hand03_02 L_front_hand03_01
R_forearm R_humerus
R_front_hand R_forearm
R_weapon_bone R_forearm
R_front_hand01_01 R_front_hand
R_front_hand02_01 R_front_hand
R_front_hand03_01 R_front_hand
R_front_hand01_02 R_front_hand01_01
R_front_hand02_02 R_front_hand02_01
R_front_hand03_02 R_front_hand03_01
null_rope01_connect L_mid_tent01
Rope1_Seg01 null_rope01_connect
Rope1_Seg02 Rope1_Seg01
Rope1_Seg03 Rope1_Seg02
Rope1_Seg04 Rope1_Seg03
Rope1_Seg05 Rope1_Seg04
Rope1_Seg06 Rope1_Seg05
Rope1_Seg07 Rope1_Seg06
Rope1_Seg09 Rope1_Seg07
L_mid_hand01 Rope1_Seg09
L_mid_hand02 Rope1_Seg09
L_mid_hand03 Rope1_Seg09
null_rope02_connect R_mid_tent01
Rope2_Seg01 null_rope02_connect
Rope2_Seg02 Rope2_Seg01
Rope2_Seg03 Rope2_Seg02
Rope2_Seg04 Rope2_Seg03
Rope2_Seg05 Rope2_Seg04
Rope2_Seg06 Rope2_Seg05
Rope2_Seg07 Rope2_Seg06
Rope2_Seg09 Rope2_Seg07
R_mid_hand01 Rope2_Seg09
R_mid_hand02 Rope2_Seg09
R_mid_hand03 Rope2_Seg09
spine02 spine01
spine03 spine02
pelvis spine03
null_rope03_connect pelvis
null_rope04_connect pelvis
Rope3_Seg01 null_rope03_connect
Rope3_Seg02 Rope3_Seg01
Rope3_Seg03 Rope3_Seg02
Rope3_Seg04 Rope3_Seg03
Rope3_Seg05 Rope3_Seg04
Rope3_Seg06 Rope3_Seg05
Rope3_Seg07 Rope3_Seg06
Rope3_Seg08 Rope3_Seg07
Rope3_Seg09 Rope3_Seg08
R_rear_hand01 Rope3_Seg09
R_rear_hand02 Rope3_Seg09
R_rear_hand03 Rope3_Seg09
Rope4_Seg01 null_rope04_connect
Rope4_Seg02 Rope4_Seg01
Rope4_Seg03 Rope4_Seg02
Rope4_Seg04 Rope4_Seg03
Rope4_Seg05 Rope4_Seg04
Rope4_Seg06 Rope4_Seg05
Rope4_Seg07 Rope4_Seg06
Rope4_Seg08 Rope4_Seg07
Rope4_Seg09 Rope4_Seg08
L_rear_hand01 Rope4_Seg09
L_rear_hand02 Rope4_Seg09
L_rear_hand03 Rope4_Seg09
[BasePosition]
#SegmentName Tx, Ty, Tz, Rx, Ry, Rz, BoneLength
MASTER 0.000000 0.000000 0.000000 -90.000000 0.000000 0.000000 10.000000 
root 0.000000 0.000000 0.000000 0.000000 0.000000 0.000000 10.000000 
chest 0.000000 0.000000 0.000000 0.000000 0.000000 0.000000 10.000000 
L_mid_tent01 0.000000 0.000000 0.000000 0.000000 0.000000 0.000000 10.000000 
R_mid_tent01 0.000000 0.000000 0.000000 0.000000 0.000000 0.000000 10.000000 
spine01 0.000000 0.000000 0.000000 0.000000 0.000000 0.000000 10.000000 
Bip01_Neck 0.000000 0.000000 0.000000 0.000000 0.000000 0.000000 10.000000 
L_humerus 0.000000 0.000000 0.000000 0.000000 0.000000 0.000000 10.000000 
R_humerus 0.000000 0.000000 0.000000 0.000000 0.000000 0.000000 10.000000 
weapon_bone 0.000000 0.000000 0.000000 0.000000 0.000000 0.000000 10.000000 
Bip01_Head 0.000000 0.000000 0.000000 0.000000 0.000000 0.000000 10.000000 
eye_left_bone 0.000000 0.000000 0.000000 0.000000 0.000000 0.000000 10.000000 
eye_right_bone 0.000000 0.000000 0.000000 0.000000 0.000000 0.000000 10.000000 
L_forearm 0.000000 0.000000 0.000000 0.000000 0.000000 0.000000 10.000000 
L_front_hand 0.000000 0.000000 0.000000 0.000000 0.000000 0.000000 10.000000 
L_weapon_bone 0.000000 0.000000 0.000000 0.000000 0.000000 0.000000 10.000000 
L_front_hand01_01 0.000000 0.000000 0.000000 0.000000 0.000000 0.000000 10.000000 
L_front_hand02_01 0.000000 0.000000 0.000000 0.000000 0.000000 0.000000 10.000000 
L_front_hand03_01 0.000000 0.000000 0.000000 0.000000 0.000000 0.000000 10.000000 
L_front_hand01_02 0.000000 0.000000 0.000000 0.000000 0.000000 0.000000 10.000000 
L_front_hand02_02 0.000000 0.000000 0.000000 0.000000 0.000000 0.000000 10.000000 
L_front_hand03_02 0.000000 0.000000 0.000000 0.000000 0.000000 0.000000 10.000000 
R_forearm 0.000000 0.000000 0.000000 0.000000 0.000000 0.000000 10.000000 
R_front_hand 0.000000 0.000000 0.000000 0.000000 0.000000 0.000000 10.000000 
R_weapon_bone 0.000000 0.000000 0.000000 0.000000 0.000000 0.000000 10.000000 
R_front_hand01_01 0.000000 0.000000 0.000000 0.000000 0.000000 0.000000 10.000000 
R_front_hand02_01 0.000000 0.000000 0.000000 0.000000 0.000000 0.000000 10.000000 
R_front_hand03_01 0.000000 0.000000 0.000000 0.000000 0.000000 0.000000 10.000000 
R_front_hand01_02 0.000000 0.000000 0.000000 0.000000 0.000000 0.000000 10.000000 
R_front_hand02_02 0.000000 0.000000 0.000000 0.000000 0.000000 0.000000 10.000000 
R_front_hand03_02 0.000000 0.000000 0.000000 0.000000 0.000000 0.000000 10.000000 
null_rope01_connect 0.000000 0.000000 0.000000 0.000000 0.000000 0.000000 10.000000 
Rope1_Seg01 0.000000 0.000000 0.000000 0.000000 0.000000 0.000000 10.000000 
Rope1_Seg02 0.000000 0.000000 0.000000 0.000000 0.000000 0.000000 10.000000 
Rope1_Seg03 0.000000 0.000000 0.000000 0.000000 0.000000 0.000000 10.000000 
Rope1_Seg04 0.000000 0.000000 0.000000 0.000000 0.000000 0.000000 10.000000 
Rope1_Seg05 0.000000 0.000000 0.000000 0.000000 0.000000 0.000000 10.000000 
Rope1_Seg06 0.000000 0.000000 0.000000 0.000000 0.000000 0.000000 10.000000 
Rope1_Seg07 0.000000 0.000000 0.000000 0.000000 0.000000 0.000000 10.000000 
Rope1_Seg09 0.000000 0.000000 0.000000 0.000000 0.000000 0.000000 10.000000 
L_mid_hand01 0.000000 0.000000 0.000000 0.000000 0.000000 0.000000 10.000000 
L_mid_hand02 0.000000 0.000000 0.000000 0.000000 0.000000 0.000000 10.000000 
L_mid_hand03 0.000000 0.000000 0.000000 0.000000 0.000000 0.000000 10.000000 
null_rope02_connect 0.000000 0.000000 0.000000 0.000000 0.000000 0.000000 10.000000 
Rope2_Seg01 0.000000 0.000000 0.000000 0.000000 0.000000 0.000000 10.000000 
Rope2_Seg02 0.000000 0.000000 0.000000 0.000000 0.000000 0.000000 10.000000 
Rope2_Seg03 0.000000 0.000000 0.000000 0.000000 0.000000 0.000000 10.000000 
Rope2_Seg04 0.000000 0.000000 0.000000 0.000000 0.000000 0.000000 10.000000 
Rope2_Seg05 0.000000 0.000000 0.000000 0.000000 0.000000 0.000000 10.000000 
Rope2_Seg06 0.000000 0.000000 0.000000 0.000000 0.000000 0.000000 10.000000 
Rope2_Seg07 0.000000 0.000000 0.000000 0.000000 0.000000 0.000000 10.000000 
Rope2_Seg09 0.000000 0.000000 0.000000 0.000000 0.000000 0.000000 10.000000 
R_mid_hand01 0.000000 0.000000 0.000000 0.000000 0.000000 0.000000 10.000000 
R_mid_hand02 0.000000 0.000000 0.000000 0.000000 0.000000 0.000000 10.000000 
R_mid_hand03 0.000000 0.000000 0.000000 0.000000 0.000000 0.000000 10.000000 
spine02 0.000000 0.000000 0.000000 0.000000 0.000000 0.000000 10.000000 
spine03 0.000000 0.000000 0.000000 0.000000 0.000000 0.000000 10.000000 
pelvis 0.000000 0.000000 0.000000 0.000000 0.000000 0.000000 10.000000 
null_rope03_connect 0.000000 0.000000 0.000000 0.000000 0.000000 0.000000 10.000000 
null_rope04_connect 0.000000 0.000000 0.000000 0.000000 0.000000 0.000000 10.000000 
Rope3_Seg01 0.000000 0.000000 0.000000 0.000000 0.000000 0.000000 10.000000 
Rope3_Seg02 0.000000 0.000000 0.000000 0.000000 0.000000 0.000000 10.000000 
Rope3_Seg03 0.000000 0.000000 0.000000 0.000000 0.000000 0.000000 10.000000 
Rope3_Seg04 0.000000 0.000000 0.000000 0.000000 0.000000 0.000000 10.000000 
Rope3_Seg05 0.000000 0.000000 0.000000 0.000000 0.000000 0.000000 10.000000 
Rope3_Seg06 0.000000 0.000000 0.000000 0.000000 0.000000 0.000000 10.000000 
Rope3_Seg07 0.000000 0.000000 0.000000 0.000000 0.000000 0.000000 10.000000 
Rope3_Seg08 0.000000 0.000000 0.000000 0.000000 0.000000 0.000000 10.000000 
Rope3_Seg09 0.000000 0.000000 0.000000 0.000000 0.000000 0.000000 10.000000 
R_rear_hand01 0.000000 0.000000 0.000000 0.000000 0.000000 0.000000 10.000000 
R_rear_hand02 0.000000 0.000000 0.000000 0.000000 0.000000 0.000000 10.000000 
R_rear_hand03 0.000000 0.000000 0.000000 0.000000 0.000000 0.000000 10.000000 
Rope4_Seg01 0.000000 0.000000 0.000000 0.000000 0.000000 0.000000 10.000000 
Rope4_Seg02 0.000000 0.000000 0.000000 0.000000 0.000000 0.000000 10.000000 
Rope4_Seg03 0.000000 0.000000 0.000000 0.000000 0.000000 0.000000 10.000000 
Rope4_Seg04 0.000000 0.000000 0.000000 0.000000 0.000000 0.000000 10.000000 
Rope4_Seg05 0.000000 0.000000 0.000000 0.000000 0.000000 0.000000 10.000000 
Rope4_Seg06 0.000000 0.000000 0.000000 0.000000 0.000000 0.000000 10.000000 
Rope4_Seg07 0.000000 0.000000 0.000000 0.000000 0.000000 0.000000 10.000000 
Rope4_Seg08 0.000000 0.000000 0.000000 0.000000 0.000000 0.000000 10.000000 
Rope4_Seg09 0.000000 0.000000 0.000000 0.000000 0.000000 0.000000 10.000000 
L_rear_hand01 0.000000 0.000000 0.000000 0.000000 0.000000 0.000000 10.000000 
L_rear_hand02 0.000000 0.000000 0.000000 0.000000 0.000000 0.000000 10.000000 
L_rear_hand03 0.000000 0.000000 0.000000 0.000000 0.000000 0.000000 10.000000 
#Beginning of Data. Separated by tabs
#Fr	Tx	Ty	Tz	Rx	Ry	Rz	SF
[MASTER]
16 0.000000 0.000000 0.000000 0.001660 0.001660 0.001660 0.000000
17 0.000000 0.000000 0.000000 0.001660 0.001660 0.001660 0.000000
[root]
16 -29.851891 -79.719543 1502.390991 -108.417542 21.610397 -89.915771 1504.800537
17 -29.117882 -79.415688 1500.954102 -108.498611 21.453426 -89.859375 1503.335571
[chest]
16 -86.836617 -33.005978 -30.127247 4.537744 -9.175496 -179.069962 97.660858
17 -86.836617 -33.005978 -30.127247 4.842329 -9.215763 -178.907257 97.660858
[L_mid_tent01]
16 27.299519 22.177580 -249.918289 -9.117356 17.466944 67.453033 252.381180
17 27.299517 22.177580 -249.918289 -9.099747 18.248217 67.432205 252.381180
[R_mid_tent01]
16 23.228794 24.509907 226.238495 -176.059158 -15.625846 65.652382 228.744751
17 23.228794 24.509907 226.238495 -176.050491 -16.007486 65.625198 228.744751
[spine01]
16 -0.361383 -0.195265 0.000000 -0.000001 -0.000007 22.052340 0.410763
17 -0.361383 -0.195265 0.000000 -0.000001 -0.000007 22.052340 0.410763
[Bip01_Neck]
16 165.484543 71.581718 0.000119 175.896118 1.177290 24.871183 180.302734
17 165.484543 71.581718 0.000119 175.896118 1.177290 24.871183 180.302734
[L_humerus]
16 -13.983130 -135.272980 -120.471481 -168.517593 36.033752 -113.483025 181.680161
17 -13.983130 -135.272980 -120.471481 -168.517593 36.033756 -113.483017 181.680161
[R_humerus]
16 -13.983309 -135.273102 125.287651 -179.579803 -31.741405 -122.055481 184.909012
17 -13.983309 -135.273102 125.287651 -179.573685 -32.202110 -122.062309 184.909012
[weapon_bone]
16 235.964890 -300.705902 0.000000 0.000000 -89.951546 -128.212341 382.234833
17 235.964890 -300.705902 0.000000 0.000000 -89.951546 -128.212341 382.234833
[Bip01_Head]
16 189.519958 179.130234 22.124882 -23.099842 5.726783 14.489203 261.715424
17 189.519958 179.130234 22.124884 -23.363091 5.756819 14.572161 261.715424
[eye_left_bone]
16 -24.626970 125.451866 -64.772606 0.000000 -90.000000 -99.840431 143.318359
17 -24.626970 125.451866 -64.772606 0.000000 -90.000000 -99.840431 143.318359
[eye_right_bone]
16 -24.626970 125.451866 64.327362 0.000000 -89.980217 80.156387 143.117676
17 -24.626970 125.451866 64.327362 0.000000 -89.965736 80.156380 143.117676
[L_forearm]
16 322.776093 0.000000 -0.000119 0.000017 0.002347 -89.149834 322.776093
17 322.776093 0.000000 -0.000119 0.000017 0.002347 -89.149834 322.776093
[L_front_hand]
16 241.149185 -0.042021 -3.300071 13.921437 -2.242733 -0.023006 241.171753
17 241.149185 -0.042021 -3.300071 59.484406 -2.242247 -0.020333 241.171753
[L_weapon_bone]
16 156.183838 0.000000 0.000000 0.000014 0.000007 0.000001 156.183838
17 156.183838 0.000000 0.000000 0.000014 0.000007 0.000001 156.183838
[L_front_hand01_01]
16 86.095154 20.947098 -0.655860 -0.366594 -0.477154 75.385574 88.609184
17 86.095154 20.947098 -0.655860 -0.366594 -0.477154 75.385574 88.609184
[L_front_hand02_01]
16 86.935165 -11.437475 24.513514 154.399796 -59.883835 -61.369587 91.046425
17 86.935165 -11.437475 24.513514 154.399796 -59.883835 -61.369587 91.046425
[L_front_hand03_01]
16 86.637497 -14.123976 -20.424902 -153.913849 58.118130 -62.702866 90.126129
17 86.637497 -14.123976 -20.424902 -153.913849 58.118122 -62.702866 90.126129
[L_front_hand01_02]
16 71.020905 -0.000179 0.000030 0.000334 -0.002323 -106.379684 71.020905
17 71.020905 -0.000179 0.000030 0.000334 -0.002323 -106.379684 71.020905
[L_front_hand02_02]
16 71.020927 -0.000119 0.000060 0.000334 -0.002323 -106.379684 71.020927
17 71.020927 -0.000119 0.000060 0.000334 -0.002323 -106.379684 71.020927
[L_front_hand03_02]
16 71.020905 -0.000060 0.000060 0.000334 -0.002323 -106.379684 71.020905
17 71.020905 -0.000060 0.000060 0.000334 -0.002323 -106.379684 71.020905
[R_forearm]
16 322.776428 -0.000060 0.000030 0.213197 0.007525 -93.425262 322.776428
17 322.776428 -0.000060 0.000030 0.213197 0.007525 -93.425247 322.776428
[R_front_hand]
16 238.847015 -0.006795 2.210259 -0.270529 1.703932 2.322530 238.857239
17 238.847015 -0.006795 2.210259 -0.270529 1.703932 2.322530 238.857239
[R_weapon_bone]
16 155.664093 0.002503 -0.000030 0.003487 0.001180 -90.988930 155.664078
17 155.664093 0.002503 -0.000030 0.003487 0.001180 -90.988930 155.664078
[R_front_hand01_01]
16 87.624611 14.231146 22.918642 -154.633499 -59.950619 61.746044 91.683487
17 87.624611 14.231146 22.918642 -154.633499 -59.950619 61.746044 91.683487
[R_front_hand02_01]
16 89.356956 14.367283 -19.491137 154.602661 58.302849 63.744389 92.579636
17 89.356956 14.367283 -19.491137 154.602661 58.302849 63.744389 92.579636
[R_front_hand03_01]
16 87.286232 -22.307278 -0.143439 0.162155 -0.423168 -75.767906 90.091743
17 87.286232 -22.307278 -0.143439 0.162155 -0.423168 -75.767921 90.091743
[R_front_hand01_02]
16 71.020905 0.000060 0.000119 0.002323 -0.000334 106.381714 71.020905
17 71.020905 0.000060 0.000119 0.002323 -0.000334 106.381714 71.020905
[R_front_hand02_02]
16 71.020844 -0.000030 -0.000119 0.002323 -0.000334 106.381714 71.020836
17 71.020844 -0.000030 -0.000119 0.002323 -0.000334 106.381714 71.020836
[R_front_hand03_02]
16 71.020905 0.000000 0.000030 0.002323 -0.000334 106.381714 71.020905
17 71.020905 0.000000 0.000030 0.002323 -0.000334 106.381714 71.020905
[null_rope01_connect]
16 328.732483 0.000000 -0.000238 155.244781 -51.961689 -156.005585 328.732483
17 328.732483 0.000000 -0.000238 155.881042 -51.161407 -156.454575 328.732483
[Rope1_Seg01]
16 0.000000 0.000000 0.000000 161.437439 58.134048 -168.686813 0.000000
17 0.000000 0.000000 0.000000 162.222580 58.742378 -168.413254 0.000000
[Rope1_Seg02]
16 139.999863 -0.000179 0.000000 12.327639 -6.596966 -10.769382 139.999863
17 139.999863 -0.000179 0.000000 12.215423 -6.647764 -10.662463 139.999863
[Rope1_Seg03]
16 139.999924 0.000060 -0.000060 17.823620 -12.178578 -12.303967 139.999924
17 139.999924 0.000060 -0.000060 17.632093 -12.188388 -12.216301 139.999924
[Rope1_Seg04]
16 139.999924 -0.000060 -0.000119 18.431742 -21.716351 -9.966252 139.999924
17 139.999924 -0.000060 -0.000119 18.362301 -21.813675 -9.994840 139.999924
[Rope1_Seg05]
16 139.999832 0.000119 -0.000060 1.074587 1.971233 -4.680474 139.999832
17 139.999832 0.000119 -0.000060 1.286236 1.524119 -4.651957 139.999832
[Rope1_Seg06]
16 139.999954 0.000119 -0.000060 -8.396288 14.327000 -5.154515 139.999954
17 139.999954 0.000119 -0.000060 -7.869516 13.956797 -5.139130 139.999954
[Rope1_Seg07]
16 139.999985 0.000060 0.000000 -3.488065 5.182010 -2.043421 139.999985
17 139.999985 0.000060 0.000000 -3.140920 5.002652 -2.111631 139.999985
[Rope1_Seg09]
16 121.602913 0.000119 -0.000089 -89.793175 -1.359789 0.847147 121.602913
17 121.602913 0.000119 -0.000089 -89.793175 -1.359789 0.847147 121.602913
[L_mid_hand01]
16 103.859421 1.038730 8.195221 106.855484 -31.239275 -9.461397 104.187431
17 103.859421 1.038730 8.195221 106.855484 -31.239275 -9.461397 104.187431
[L_mid_hand02]
16 105.572853 -4.139662 -10.864139 -142.331345 25.752670 -28.774628 106.211075
17 105.572853 -4.139662 -10.864139 -142.331345 25.752670 -28.774628 106.211075
[L_mid_hand03]
16 104.641464 17.579376 -3.913581 -16.122810 9.734291 34.223598 106.179977
17 104.641464 17.579376 -3.913581 -16.122810 9.734291 34.223598 106.179977
[null_rope02_connect]
16 328.732849 0.000179 -0.000119 -69.408157 86.165390 108.839676 328.732849
17 328.732849 0.000179 -0.000119 -74.151436 86.174026 103.952820 328.732849
[Rope2_Seg01]
16 0.000076 0.000110 0.000153 49.976688 85.790108 163.737274 0.000203
17 0.000076 0.000110 0.000153 46.895084 86.122627 160.554703 0.000203
[Rope2_Seg02]
16 139.999741 -0.000060 -0.000119 -2.864872 11.260658 5.647493 139.999756
17 139.999741 -0.000060 -0.000119 -2.924539 11.227564 5.766815 139.999756
[Rope2_Seg03]
16 140.000107 0.000030 0.000000 -5.199254 12.092721 7.227865 140.000107
17 140.000107 0.000030 0.000000 -5.182800 11.859870 7.278471 140.000107
[Rope2_Seg04]
16 139.999802 0.000000 -0.000060 -6.991517 10.524329 7.733702 139.999802
17 139.999802 0.000000 -0.000060 -6.892323 10.305091 7.769252 139.999802
[Rope2_Seg05]
16 139.999985 -0.000060 0.000119 -4.310872 5.292330 3.821227 139.999985
17 139.999985 -0.000060 0.000119 -4.555446 5.590577 4.111251 139.999985
[Rope2_Seg06]
16 139.999893 -0.000030 -0.000119 -3.013471 3.130909 2.498059 139.999893
17 139.999893 -0.000030 -0.000119 -3.197275 3.318645 2.686064 139.999893
[Rope2_Seg07]
16 139.999893 0.000060 -0.000060 -2.590714 2.223326 2.185493 139.999893
17 139.999893 0.000060 -0.000060 -2.727386 2.308595 2.326897 139.999893
[Rope2_Seg09]
16 121.338966 0.000089 -0.000060 33.793236 -1.359788 -0.847141 121.338966
17 121.338966 0.000089 -0.000060 33.793236 -1.359788 -0.847141 121.338966
[R_mid_hand01]
16 104.680779 11.144459 -10.335981 -41.523792 25.424656 28.595957 105.778534
17 104.680779 11.144459 -10.335981 -41.523792 25.424656 28.595957 105.778534
[R_mid_hand02]
16 104.070427 2.443552 8.231699 72.847389 -32.746803 10.013901 104.424065
17 104.070427 2.443552 8.231699 72.847389 -32.746803 10.013901 104.424065
[R_mid_hand03]
16 106.028137 -11.221827 -5.996406 -167.901306 10.259192 -37.009720 106.788818
17 106.028137 -11.221827 -5.996406 -167.901306 10.259192 -37.009720 106.788818
[spine02]
16 129.756927 0.001550 0.000119 -0.245322 -4.052060 -4.355547 129.756927
17 129.756927 0.001550 0.000119 -0.245322 -4.052060 -4.355547 129.756927
[spine03]
16 78.613846 0.087372 -4.898873 0.207412 -2.089716 -0.432471 78.766380
17 78.613846 0.087372 -4.898873 0.207412 -2.089717 -0.432471 78.766380
[pelvis]
16 169.435242 0.051022 0.000000 -0.010007 -0.191417 -1.897554 169.435257
17 169.435242 0.051022 0.000000 -0.010007 -0.191417 -1.897554 169.435257
[null_rope03_connect]
16 -1.257226 -2.466202 137.391083 137.789917 -72.345161 -85.737839 137.418976
17 -1.257226 -2.466202 137.391083 137.907242 -72.237213 -85.701180 137.418976
[null_rope04_connect]
16 -1.259640 -2.480268 -137.844437 137.789917 -72.345161 -85.737839 137.872513
17 -1.259640 -2.480268 -137.844437 137.907242 -72.237213 -85.701180 137.872513
[Rope3_Seg01]
16 0.000000 0.000000 0.000000 -165.002289 68.709885 -103.263565 0.000000
17 0.000000 0.000000 0.000000 -163.828217 69.439690 -101.751495 0.000000
[Rope3_Seg02]
16 139.999924 -0.000119 0.000060 5.313072 11.290197 -5.739533 139.999924
17 139.999924 -0.000119 0.000060 4.991060 10.975257 -5.767881 139.999924
[Rope3_Seg03]
16 139.999924 -0.000119 0.000119 9.025831 18.809273 -5.927190 139.999924
17 139.999924 -0.000119 0.000119 8.512218 18.587687 -6.201096 139.999924
[Rope3_Seg04]
16 139.999924 0.000119 0.000000 0.985910 -2.111361 -6.619069 139.999924
17 139.999924 0.000119 0.000000 1.105811 -1.550242 -6.536131 139.999924
[Rope3_Seg05]
16 139.999924 -0.000238 0.000060 -3.926368 -22.918255 -2.464268 139.999924
17 139.999924 -0.000238 0.000060 -3.974010 -22.940554 -1.827631 139.999924
[Rope3_Seg06]
16 139.999893 -0.000119 -0.000060 0.220456 -8.634068 -2.306546 139.999893
17 139.999893 -0.000119 -0.000060 0.209411 -8.659202 -2.023029 139.999893
[Rope3_Seg07]
16 139.999771 0.000060 -0.000119 0.674449 -5.011727 -1.458591 139.999771
17 139.999771 0.000060 -0.000119 0.661759 -4.983073 -1.289525 139.999771
[Rope3_Seg08]
16 139.999985 -0.000060 0.000000 0.723975 -2.967597 -0.826832 139.999985
17 139.999985 -0.000060 0.000000 0.719563 -2.945155 -0.725971 139.999985
[Rope3_Seg09]
16 90.185997 -0.000179 -0.000060 89.793228 -1.359877 -0.847183 90.185997
17 90.185997 -0.000179 -0.000060 89.793228 -1.359877 -0.847183 90.185997
[R_rear_hand01]
16 103.366196 -6.073594 -10.757982 -161.551193 16.666374 -30.088671 104.101845
17 103.366196 -6.073594 -10.757982 -161.551193 16.666374 -30.088671 104.101845
[R_rear_hand02]
16 100.509819 12.039542 -7.992327 -34.280552 19.289745 28.875523 101.543350
17 100.509819 12.039542 -7.992327 -34.280552 19.289745 28.875523 101.543350
[R_rear_hand03]
16 101.539970 5.215704 5.435467 83.366440 -30.933914 7.284830 101.819031
17 101.539970 5.215704 5.435467 83.366440 -30.933914 7.284830 101.819031
[Rope4_Seg01]
16 0.000010 0.000038 -0.000114 -2.274875 72.297752 -166.273773 0.000121
17 0.000010 0.000038 -0.000114 -1.304427 72.539894 -165.255005 0.000121
[Rope4_Seg02]
16 139.999985 0.000060 0.000119 -0.378855 -2.055686 9.839340 139.999985
17 139.999985 0.000060 0.000119 -0.432600 -1.882378 9.789762 139.999985
[Rope4_Seg03]
16 139.999924 0.000000 -0.000238 -1.313446 -3.287846 13.140631 139.999924
17 139.999924 0.000000 -0.000238 -1.405954 -3.068579 13.080257 139.999924
[Rope4_Seg04]
16 139.999985 0.000000 0.000119 -2.434221 -4.303470 15.050820 139.999985
17 139.999985 0.000000 0.000119 -2.538294 -3.984055 14.831773 139.999985
[Rope4_Seg05]
16 139.999802 -0.000060 -0.000119 0.454455 4.182544 -0.204449 139.999802
17 139.999802 -0.000060 -0.000119 0.474150 4.088581 -0.211536 139.999802
[Rope4_Seg06]
16 139.999924 0.000000 0.000060 1.242458 5.174384 -3.230124 139.999924
17 139.999924 0.000000 0.000060 1.212243 4.822771 -2.883166 139.999924
[Rope4_Seg07]
16 139.999802 0.000000 0.000000 0.650847 2.873660 -0.548490 139.999802
17 139.999802 0.000000 0.000000 0.610857 2.704384 -0.389590 139.999802
[Rope4_Seg08]
16 139.999924 0.000000 0.000119 -1.039105 2.001254 -0.397381 139.999924
17 139.999924 0.000000 0.000119 -1.083107 1.855315 -0.296183 139.999924
[Rope4_Seg09]
16 90.185791 0.000060 0.000060 -135.617828 2.228885 0.850567 90.185791
17 90.185791 0.000060 0.000060 -135.617828 2.228885 0.850567 90.185791
[L_rear_hand01]
16 101.696655 -8.392275 -7.654577 -34.454281 -18.946800 151.655121 102.329041
17 101.696655 -8.392275 -7.654577 -34.454281 -18.946800 151.655121 102.329041
[L_rear_hand02]
16 102.726799 -1.568258 5.773216 83.407906 30.330435 172.796509 102.900848
17 102.726799 -1.568258 5.773216 83.407906 30.330435 172.796509 102.900848
[L_rear_hand03]
16 104.552910 9.721220 -10.420293 -161.379868 -16.473232 -150.512238 105.519653
17 104.552910 9.721220 -10.420293 -161.379868 -16.473232 -150.512238 105.519653
